# Blender 3.3.1
# www.blender.org
mtllib Arrow.mtl
o Cylinder
v 0.000000 2.692553 -0.303936
v 0.059295 2.692553 -0.298096
v 0.116311 2.692553 -0.280800
v 0.168858 2.692553 -0.252714
v 0.214915 2.692553 -0.214915
v 0.252714 2.692553 -0.168858
v 0.280800 2.692553 -0.116311
v 0.298096 2.692553 -0.059295
v 0.303936 2.692553 -0.000000
v 0.298096 2.692553 0.059295
v 0.280800 2.692553 0.116311
v 0.252714 2.692553 0.168858
v 0.214915 2.692553 0.214915
v 0.168858 2.692553 0.252714
v 0.116311 2.692553 0.280800
v 0.059295 2.692553 0.298096
v 0.000000 2.692553 0.303936
v -0.059295 2.692553 0.298096
v -0.116311 2.692553 0.280800
v -0.168858 2.692553 0.252714
v -0.214915 2.692553 0.214915
v -0.252714 2.692553 0.168858
v -0.280800 2.692553 0.116311
v -0.298096 2.692553 0.059295
v -0.303936 2.692553 -0.000000
v -0.298096 2.692553 -0.059295
v -0.280800 2.692553 -0.116311
v -0.252714 2.692553 -0.168858
v -0.214915 2.692553 -0.214915
v -0.168858 2.692553 -0.252714
v -0.116311 2.692553 -0.280800
v -0.059295 2.692553 -0.298096
v 0.000000 0.426637 -0.661616
v 0.129075 0.426637 -0.648903
v 0.253189 0.426637 -0.611253
v 0.367574 0.426637 -0.550113
v 0.467833 0.426637 -0.467833
v 0.550113 0.426637 -0.367574
v 0.611253 0.426637 -0.253189
v 0.648903 0.426637 -0.129075
v 0.661616 0.426637 -0.000000
v 0.648903 0.426637 0.129075
v 0.611253 0.426637 0.253189
v 0.550113 0.426637 0.367574
v 0.467833 0.426637 0.467833
v 0.367574 0.426637 0.550113
v 0.253189 0.426637 0.611253
v 0.129075 0.426637 0.648903
v 0.000000 0.426637 0.661616
v -0.129075 0.426637 0.648903
v -0.253189 0.426637 0.611253
v -0.367574 0.426637 0.550113
v -0.467833 0.426637 0.467833
v -0.550113 0.426637 0.367574
v -0.611253 0.426637 0.253189
v -0.648903 0.426637 0.129075
v -0.661616 0.426637 -0.000000
v -0.648903 0.426637 -0.129075
v -0.611253 0.426637 -0.253189
v -0.550113 0.426637 -0.367574
v -0.467833 0.426637 -0.467833
v -0.367574 0.426637 -0.550113
v -0.253189 0.426637 -0.611253
v -0.129075 0.426637 -0.648903
v -0.000000 -0.560314 0.000000
v 0.000000 0.665365 -0.303936
v 0.059295 0.665365 -0.298096
v 0.116311 0.665365 -0.280800
v 0.168858 0.665365 -0.252714
v 0.214915 0.665365 -0.214915
v 0.252714 0.665365 -0.168858
v 0.280800 0.665365 -0.116311
v 0.298096 0.665365 -0.059295
v 0.303936 0.665365 -0.000000
v 0.298096 0.665365 0.059295
v 0.280800 0.665365 0.116311
v 0.252714 0.665365 0.168858
v 0.214915 0.665365 0.214915
v 0.168858 0.665365 0.252714
v 0.116311 0.665365 0.280800
v 0.059295 0.665365 0.298096
v 0.000000 0.665365 0.303936
v -0.059295 0.665365 0.298096
v -0.116311 0.665365 0.280800
v -0.168858 0.665365 0.252714
v -0.214915 0.665365 0.214915
v -0.252714 0.665365 0.168858
v -0.280800 0.665365 0.116311
v -0.298096 0.665365 0.059295
v -0.303936 0.665365 -0.000000
v -0.298096 0.665365 -0.059295
v -0.280800 0.665365 -0.116311
v -0.252714 0.665365 -0.168858
v -0.214915 0.665365 -0.214915
v -0.168858 0.665365 -0.252714
v -0.116311 0.665365 -0.280800
v -0.059295 0.665365 -0.298096
v 0.000000 0.665365 -0.661616
v 0.129075 0.665365 -0.648903
v 0.253189 0.665365 -0.611253
v 0.367574 0.665365 -0.550113
v 0.467833 0.665365 -0.467833
v 0.550113 0.665365 -0.367574
v 0.611253 0.665365 -0.253189
v 0.648903 0.665365 -0.129075
v 0.661616 0.665365 -0.000000
v 0.648903 0.665365 0.129075
v 0.611253 0.665365 0.253189
v 0.550113 0.665365 0.367574
v 0.467833 0.665365 0.467833
v 0.367574 0.665365 0.550113
v 0.253189 0.665365 0.611253
v 0.129075 0.665365 0.648903
v 0.000000 0.665365 0.661616
v -0.129075 0.665365 0.648903
v -0.253189 0.665365 0.611253
v -0.367574 0.665365 0.550113
v -0.467833 0.665365 0.467833
v -0.550113 0.665365 0.367574
v -0.611253 0.665365 0.253189
v -0.648903 0.665365 0.129075
v -0.661616 0.665365 -0.000000
v -0.648903 0.665365 -0.129075
v -0.611253 0.665365 -0.253189
v -0.550113 0.665365 -0.367574
v -0.467833 0.665365 -0.467833
v -0.367574 0.665365 -0.550113
v -0.253189 0.665365 -0.611253
v -0.129075 0.665365 -0.648903
vn -0.0000 1.0000 -0.0000
vn 0.8819 -0.0000 -0.4714
vn 0.5277 -0.5550 -0.6430
vn -0.0980 -0.0000 -0.9952
vn 0.9952 -0.0000 -0.0980
vn 0.7730 -0.0000 -0.6344
vn -0.2903 -0.0000 -0.9569
vn -0.9952 -0.0000 -0.0980
vn 0.6344 -0.0000 -0.7730
vn -0.4714 -0.0000 -0.8819
vn 0.0980 -0.0000 0.9952
vn 0.4714 -0.0000 -0.8819
vn -0.6344 -0.0000 -0.7730
vn 0.9569 -0.0000 -0.2903
vn 0.2903 -0.0000 -0.9569
vn -0.7730 -0.0000 -0.6344
vn -0.9952 -0.0000 0.0980
vn 0.0980 -0.0000 -0.9952
vn -0.8819 -0.0000 -0.4714
vn 0.2903 -0.0000 0.9569
vn -0.9569 -0.0000 -0.2903
vn -0.9569 -0.0000 0.2903
vn 0.4714 -0.0000 0.8819
vn -0.8819 -0.0000 0.4714
vn -0.7730 -0.0000 0.6344
vn 0.6344 -0.0000 0.7730
vn -0.2415 -0.5550 -0.7961
vn -0.2415 -0.5550 0.7961
vn 0.6430 -0.5550 -0.5277
vn -0.0815 -0.5550 -0.8279
vn -0.3921 -0.5550 0.7336
vn 0.7336 -0.5550 -0.3921
vn -0.5277 -0.5550 0.6430
vn 0.7961 -0.5550 -0.2415
vn -0.6430 -0.5550 0.5277
vn 0.8279 -0.5550 -0.0815
vn -0.7336 -0.5550 0.3921
vn 0.8279 -0.5550 0.0815
vn -0.7961 -0.5550 0.2415
vn 0.7961 -0.5550 0.2415
vn -0.8279 -0.5550 0.0815
vn 0.7336 -0.5550 0.3921
vn -0.8279 -0.5550 -0.0815
vn 0.6430 -0.5550 0.5277
vn -0.7961 -0.5550 -0.2415
vn 0.5277 -0.5550 0.6430
vn -0.7336 -0.5550 -0.3921
vn 0.3921 -0.5550 0.7336
vn 0.0815 -0.5550 -0.8279
vn -0.6430 -0.5550 -0.5277
vn 0.2415 -0.5550 0.7961
vn 0.2415 -0.5550 -0.7961
vn -0.5277 -0.5550 -0.6430
vn 0.0815 -0.5550 0.8279
vn 0.3921 -0.5550 -0.7336
vn -0.3921 -0.5550 -0.7336
vn -0.0815 -0.5550 0.8279
vn -0.0980 -0.0000 0.9952
vn 0.9952 -0.0000 0.0980
vn -0.2903 -0.0000 0.9569
vn 0.9569 -0.0000 0.2903
vn 0.8819 -0.0000 0.4714
vn 0.7730 -0.0000 0.6344
vn -0.4714 -0.0000 0.8819
vn -0.6344 -0.0000 0.7730
vt 0.000000 0.500000
vt 1.000000 0.500000
vt 0.968750 0.500000
vt 0.937500 0.500000
vt 0.906250 0.500000
vt 0.875000 0.500000
vt 0.843750 0.500000
vt 0.812500 0.500000
vt 0.781250 0.500000
vt 0.750000 0.500000
vt 0.718750 0.500000
vt 0.687500 0.500000
vt 0.656250 0.500000
vt 0.625000 0.500000
vt 0.593750 0.500000
vt 0.562500 0.500000
vt 0.531250 0.500000
vt 0.500000 0.500000
vt 0.468750 0.500000
vt 0.437500 0.500000
vt 0.406250 0.500000
vt 0.375000 0.500000
vt 0.343750 0.500000
vt 0.312500 0.500000
vt 0.281250 0.500000
vt 0.250000 0.500000
vt 0.218750 0.500000
vt 0.187500 0.500000
vt 0.156250 0.500000
vt 0.125000 0.500000
vt 0.093750 0.500000
vt 0.062500 0.500000
vt 0.031250 0.500000
vt 0.000000 0.500000
vt 1.000000 0.500000
vt 0.968750 0.500000
vt 0.937500 0.500000
vt 0.906250 0.500000
vt 0.875000 0.500000
vt 0.843750 0.500000
vt 0.812500 0.500000
vt 0.781250 0.500000
vt 0.750000 0.500000
vt 0.718750 0.500000
vt 0.687500 0.500000
vt 0.656250 0.500000
vt 0.625000 0.500000
vt 0.593750 0.500000
vt 0.562500 0.500000
vt 0.531250 0.500000
vt 0.500000 0.500000
vt 0.468750 0.500000
vt 0.437500 0.500000
vt 0.406250 0.500000
vt 0.375000 0.500000
vt 0.343750 0.500000
vt 0.312500 0.500000
vt 0.281250 0.500000
vt 0.250000 0.500000
vt 0.218750 0.500000
vt 0.187500 0.500000
vt 0.156250 0.500000
vt 0.125000 0.500000
vt 0.093750 0.500000
vt 0.062500 0.500000
vt 0.031250 0.500000
vt 0.906250 0.500000
vt 0.062500 0.500000
vt 0.468750 0.500000
vt 0.875000 0.500000
vt 0.031250 0.500000
vt 0.437500 0.500000
vt 0.843750 0.500000
vt 0.406250 0.500000
vt 0.812500 0.500000
vt 0.375000 0.500000
vt 0.781250 0.500000
vt 0.343750 0.500000
vt 0.750000 0.500000
vt 0.312500 0.500000
vt 0.718750 0.500000
vt 0.281250 0.500000
vt 0.687500 0.500000
vt 0.250000 0.500000
vt 0.656250 0.500000
vt 0.218750 0.500000
vt 0.625000 0.500000
vt 0.187500 0.500000
vt 0.593750 0.500000
vt 1.000000 0.500000
vt 0.156250 0.500000
vt 0.562500 0.500000
vt 0.968750 0.500000
vt 0.125000 0.500000
vt 0.531250 0.500000
vt 0.937500 0.500000
vt 0.093750 0.500000
vt 0.500000 0.500000
vt 0.000000 0.500000
vt 1.000000 0.500000
vt 0.968750 0.500000
vt 0.937500 0.500000
vt 0.906250 0.500000
vt 0.875000 0.500000
vt 0.843750 0.500000
vt 0.812500 0.500000
vt 0.781250 0.500000
vt 0.750000 0.500000
vt 0.718750 0.500000
vt 0.687500 0.500000
vt 0.656250 0.500000
vt 0.625000 0.500000
vt 0.593750 0.500000
vt 0.562500 0.500000
vt 0.531250 0.500000
vt 0.500000 0.500000
vt 0.468750 0.500000
vt 0.437500 0.500000
vt 0.406250 0.500000
vt 0.375000 0.500000
vt 0.343750 0.500000
vt 0.312500 0.500000
vt 0.281250 0.500000
vt 0.250000 0.500000
vt 0.218750 0.500000
vt 0.187500 0.500000
vt 0.156250 0.500000
vt 0.125000 0.500000
vt 0.093750 0.500000
vt 0.062500 0.500000
vt 0.031250 0.500000
vt 1.000000 0.500000
vt 0.000000 0.500000
vt 0.968750 0.500000
vt 0.937500 0.500000
vt 0.906250 0.500000
vt 0.875000 0.500000
vt 0.843750 0.500000
vt 0.812500 0.500000
vt 0.781250 0.500000
vt 0.750000 0.500000
vt 0.718750 0.500000
vt 0.687500 0.500000
vt 0.656250 0.500000
vt 0.625000 0.500000
vt 0.593750 0.500000
vt 0.562500 0.500000
vt 0.531250 0.500000
vt 0.500000 0.500000
vt 0.468750 0.500000
vt 0.437500 0.500000
vt 0.406250 0.500000
vt 0.375000 0.500000
vt 0.343750 0.500000
vt 0.312500 0.500000
vt 0.281250 0.500000
vt 0.250000 0.500000
vt 0.218750 0.500000
vt 0.187500 0.500000
vt 0.156250 0.500000
vt 0.125000 0.500000
vt 0.093750 0.500000
vt 0.062500 0.500000
vt 0.031250 0.500000
s 0
f 31/32/1 30/31/1 29/30/1 28/29/1 27/28/1 26/27/1 25/26/1 24/25/1 23/24/1 22/23/1 21/22/1 20/21/1 19/20/1 18/19/1 17/18/1 16/17/1 15/16/1 14/15/1 13/14/1 12/13/1 11/12/1 10/11/1 9/10/1 8/9/1 7/8/1 6/7/1 5/6/1 4/5/1 3/4/1 2/3/1 1/1/1 32/33/1
f 39/41/2 38/40/2 103/138/2 104/139/2
f 36/38/3 37/39/3 65/67/3
f 33/34/4 64/66/4 129/164/4 98/133/4
f 8/9/5 9/10/5 74/108/5 73/107/5
f 38/40/6 37/39/6 102/137/6 103/138/6
f 64/66/7 63/65/7 128/163/7 129/164/7
f 25/26/8 26/27/8 91/125/8 90/124/8
f 37/39/9 36/38/9 101/136/9 102/137/9
f 63/65/10 62/64/10 127/162/10 128/163/10
f 16/17/11 17/18/11 82/116/11 81/115/11
f 36/38/12 35/37/12 100/135/12 101/136/12
f 62/64/13 61/63/13 126/161/13 127/162/13
f 7/8/14 8/9/14 73/107/14 72/106/14
f 35/37/15 34/36/15 99/134/15 100/135/15
f 61/63/16 60/62/16 125/160/16 126/161/16
f 24/25/17 25/26/17 90/124/17 89/123/17
f 34/36/18 33/35/18 98/132/18 99/134/18
f 60/62/19 59/61/19 124/159/19 125/160/19
f 15/16/20 16/17/20 81/115/20 80/114/20
f 59/61/21 58/60/21 123/158/21 124/159/21
f 6/7/2 7/8/2 72/106/2 71/105/2
f 32/33/4 1/1/4 66/99/4 97/131/4
f 58/60/8 57/59/8 122/157/8 123/158/8
f 23/24/22 24/25/22 89/123/22 88/122/22
f 57/59/17 56/58/17 121/156/17 122/157/17
f 14/15/23 15/16/23 80/114/23 79/113/23
f 56/58/22 55/57/22 120/155/22 121/156/22
f 5/6/6 6/7/6 71/105/6 70/104/6
f 31/32/7 32/33/7 97/131/7 96/130/7
f 55/57/24 54/56/24 119/154/24 120/155/24
f 22/23/24 23/24/24 88/122/24 87/121/24
f 54/56/25 53/55/25 118/153/25 119/154/25
f 13/14/26 14/15/26 79/113/26 78/112/26
f 63/65/27 64/66/27 65/68/27
f 50/52/28 51/53/28 65/69/28
f 37/39/29 38/40/29 65/70/29
f 64/66/30 33/34/30 65/71/30
f 51/53/31 52/54/31 65/72/31
f 38/40/32 39/41/32 65/73/32
f 52/54/33 53/55/33 65/74/33
f 39/41/34 40/42/34 65/75/34
f 53/55/35 54/56/35 65/76/35
f 40/42/36 41/43/36 65/77/36
f 54/56/37 55/57/37 65/78/37
f 41/43/38 42/44/38 65/79/38
f 55/57/39 56/58/39 65/80/39
f 42/44/40 43/45/40 65/81/40
f 56/58/41 57/59/41 65/82/41
f 43/45/42 44/46/42 65/83/42
f 57/59/43 58/60/43 65/84/43
f 44/46/44 45/47/44 65/85/44
f 58/60/45 59/61/45 65/86/45
f 45/47/46 46/48/46 65/87/46
f 59/61/47 60/62/47 65/88/47
f 46/48/48 47/49/48 65/89/48
f 33/35/49 34/36/49 65/90/49
f 60/62/50 61/63/50 65/91/50
f 47/49/51 48/50/51 65/92/51
f 34/36/52 35/37/52 65/93/52
f 61/63/53 62/64/53 65/94/53
f 48/50/54 49/51/54 65/95/54
f 35/37/55 36/38/55 65/96/55
f 62/64/56 63/65/56 65/97/56
f 49/51/57 50/52/57 65/98/57
f 72/106/1 73/107/1 105/140/1 104/139/1
f 81/115/1 82/116/1 114/149/1 113/148/1
f 90/124/1 91/125/1 123/158/1 122/157/1
f 68/102/1 69/103/1 101/136/1 100/135/1
f 77/111/1 78/112/1 110/145/1 109/144/1
f 86/120/1 87/121/1 119/154/1 118/153/1
f 95/129/1 96/130/1 128/163/1 127/162/1
f 73/107/1 74/108/1 106/141/1 105/140/1
f 82/116/1 83/117/1 115/150/1 114/149/1
f 91/125/1 92/126/1 124/159/1 123/158/1
f 69/103/1 70/104/1 102/137/1 101/136/1
f 78/112/1 79/113/1 111/146/1 110/145/1
f 87/121/1 88/122/1 120/155/1 119/154/1
f 96/130/1 97/131/1 129/164/1 128/163/1
f 74/108/1 75/109/1 107/142/1 106/141/1
f 83/117/1 84/118/1 116/151/1 115/150/1
f 92/126/1 93/127/1 125/160/1 124/159/1
f 70/104/1 71/105/1 103/138/1 102/137/1
f 79/113/1 80/114/1 112/147/1 111/146/1
f 88/122/1 89/123/1 121/156/1 120/155/1
f 66/100/1 67/101/1 99/134/1 98/132/1
f 97/131/1 66/99/1 98/133/1 129/164/1
f 75/109/1 76/110/1 108/143/1 107/142/1
f 84/118/1 85/119/1 117/152/1 116/151/1
f 93/127/1 94/128/1 126/161/1 125/160/1
f 71/105/1 72/106/1 104/139/1 103/138/1
f 80/114/1 81/115/1 113/148/1 112/147/1
f 89/123/1 90/124/1 122/157/1 121/156/1
f 67/101/1 68/102/1 100/135/1 99/134/1
f 76/110/1 77/111/1 109/144/1 108/143/1
f 85/119/1 86/120/1 118/153/1 117/152/1
f 94/128/1 95/129/1 127/162/1 126/161/1
f 17/18/58 18/19/58 83/117/58 82/116/58
f 40/42/14 39/41/14 104/139/14 105/140/14
f 26/27/21 27/28/21 92/126/21 91/125/21
f 41/43/5 40/42/5 105/140/5 106/141/5
f 9/10/59 10/11/59 75/109/59 74/108/59
f 42/44/59 41/43/59 106/141/59 107/142/59
f 18/19/60 19/20/60 84/118/60 83/117/60
f 1/2/18 2/3/18 67/101/18 66/100/18
f 43/45/61 42/44/61 107/142/61 108/143/61
f 27/28/19 28/29/19 93/127/19 92/126/19
f 44/46/62 43/45/62 108/143/62 109/144/62
f 10/11/61 11/12/61 76/110/61 75/109/61
f 45/47/63 44/46/63 109/144/63 110/145/63
f 19/20/64 20/21/64 85/119/64 84/118/64
f 46/48/26 45/47/26 110/145/26 111/146/26
f 28/29/16 29/30/16 94/128/16 93/127/16
f 2/3/15 3/4/15 68/102/15 67/101/15
f 47/49/23 46/48/23 111/146/23 112/147/23
f 11/12/62 12/13/62 77/111/62 76/110/62
f 48/50/20 47/49/20 112/147/20 113/148/20
f 20/21/65 21/22/65 86/120/65 85/119/65
f 49/51/11 48/50/11 113/148/11 114/149/11
f 29/30/13 30/31/13 95/129/13 94/128/13
f 3/4/12 4/5/12 69/103/12 68/102/12
f 50/52/58 49/51/58 114/149/58 115/150/58
f 12/13/63 13/14/63 78/112/63 77/111/63
f 51/53/60 50/52/60 115/150/60 116/151/60
f 21/22/25 22/23/25 87/121/25 86/120/25
f 52/54/64 51/53/64 116/151/64 117/152/64
f 30/31/10 31/32/10 96/130/10 95/129/10
f 4/5/9 5/6/9 70/104/9 69/103/9
f 53/55/65 52/54/65 117/152/65 118/153/65
