# Blender 3.3.1
# www.blender.org
mtllib Lever_Highlight.mtl
o Lever_Move
v 0.000000 -0.244668 -0.169349
v 0.000000 1.423818 -0.169349
v 0.033038 -0.244668 -0.166095
v 0.033038 1.423818 -0.166095
v 0.064807 -0.244668 -0.156458
v 0.064807 1.423818 -0.156458
v 0.094085 -0.244668 -0.140808
v 0.094085 1.423818 -0.140808
v 0.119748 -0.244668 -0.119748
v 0.119748 1.423818 -0.119748
v 0.140808 -0.244668 -0.094085
v 0.140808 1.423818 -0.094085
v 0.156458 -0.244668 -0.064807
v 0.156458 1.423818 -0.064807
v 0.166095 -0.244668 -0.033038
v 0.166095 1.423818 -0.033038
v 0.169349 -0.244668 -0.000000
v 0.169349 1.423818 -0.000000
v 0.166095 -0.244668 0.033038
v 0.166095 1.423818 0.033038
v 0.156458 -0.244668 0.064807
v 0.156458 1.423818 0.064807
v 0.140808 -0.244668 0.094085
v 0.140808 1.423818 0.094085
v 0.119748 -0.244668 0.119747
v 0.119748 1.423818 0.119747
v 0.094085 -0.244668 0.140808
v 0.094085 1.423818 0.140808
v 0.064807 -0.244668 0.156458
v 0.064807 1.423818 0.156458
v 0.033038 -0.244668 0.166095
v 0.033038 1.423818 0.166095
v 0.000000 -0.244668 0.169348
v 0.000000 1.423818 0.169348
v -0.033038 -0.244668 0.166095
v -0.033038 1.423818 0.166095
v -0.064807 -0.244668 0.156458
v -0.064807 1.423818 0.156458
v -0.094085 -0.244668 0.140808
v -0.094085 1.423818 0.140808
v -0.119748 -0.244668 0.119747
v -0.119748 1.423818 0.119747
v -0.140808 -0.244668 0.094085
v -0.140808 1.423818 0.094085
v -0.156458 -0.244668 0.064807
v -0.156458 1.423818 0.064807
v -0.166095 -0.244668 0.033038
v -0.166095 1.423818 0.033038
v -0.169349 -0.244668 -0.000000
v -0.169349 1.423818 -0.000000
v -0.166095 -0.244668 -0.033038
v -0.166095 1.423818 -0.033038
v -0.156458 -0.244668 -0.064807
v -0.156458 1.423818 -0.064807
v -0.140808 -0.244668 -0.094085
v -0.140808 1.423818 -0.094085
v -0.119748 -0.244668 -0.119748
v -0.119748 1.423818 -0.119748
v -0.094085 -0.244668 -0.140808
v -0.094085 1.423818 -0.140808
v -0.064807 -0.244668 -0.156458
v -0.064807 1.423818 -0.156458
v -0.033038 -0.244668 -0.166095
v -0.033038 1.423818 -0.166095
v 0.000000 0.851171 -0.169349
v 0.033038 0.851171 -0.166095
v 0.064807 0.851171 -0.156458
v 0.094085 0.851171 -0.140808
v 0.119748 0.851171 -0.119748
v 0.140808 0.851171 -0.094085
v 0.156458 0.851171 -0.064807
v 0.166095 0.851171 -0.033038
v 0.169349 0.851171 -0.000000
v 0.166095 0.851171 0.033038
v 0.156458 0.851171 0.064807
v 0.140808 0.851171 0.094085
v 0.119748 0.851171 0.119747
v 0.094085 0.851171 0.140808
v 0.064807 0.851171 0.156458
v 0.033038 0.851171 0.166095
v 0.000000 0.851171 0.169348
v -0.033038 0.851171 0.166095
v -0.064807 0.851171 0.156458
v -0.094085 0.851171 0.140808
v -0.119748 0.851171 0.119747
v -0.140808 0.851171 0.094085
v -0.156458 0.851171 0.064807
v -0.166095 0.851171 0.033038
v -0.169349 0.851171 -0.000000
v -0.166095 0.851171 -0.033038
v -0.156458 0.851171 -0.064807
v -0.140808 0.851171 -0.094085
v -0.119748 0.851171 -0.119748
v -0.094085 0.851171 -0.140808
v -0.064807 0.851171 -0.156458
v -0.033038 0.851171 -0.166095
v 0.000000 0.925186 -0.220223
v 0.000000 1.349802 -0.220223
v 0.042963 1.349803 -0.215991
v 0.042963 0.925186 -0.215991
v 0.084276 1.349803 -0.203459
v 0.084276 0.925186 -0.203459
v 0.122349 1.349803 -0.183108
v 0.122349 0.925186 -0.183108
v 0.155721 1.349803 -0.155721
v 0.155721 0.925186 -0.155721
v 0.183108 1.349803 -0.122349
v 0.183108 0.925186 -0.122349
v 0.203459 1.349803 -0.084276
v 0.203459 0.925186 -0.084276
v 0.215991 1.349803 -0.042963
v 0.215991 0.925186 -0.042963
v 0.220223 1.349803 -0.000000
v 0.220223 0.925186 -0.000000
v 0.215991 1.349803 0.042963
v 0.215991 0.925186 0.042963
v 0.203459 1.349803 0.084275
v 0.203459 0.925186 0.084275
v 0.183108 1.349803 0.122349
v 0.183108 0.925186 0.122349
v 0.155721 1.349803 0.155721
v 0.155721 0.925186 0.155721
v 0.122349 1.349803 0.183108
v 0.122349 0.925186 0.183108
v 0.084276 1.349803 0.203459
v 0.084276 0.925186 0.203459
v 0.042963 1.349803 0.215991
v 0.042963 0.925186 0.215991
v 0.000000 1.349803 0.220222
v 0.000000 0.925186 0.220222
v -0.042963 1.349803 0.215991
v -0.042963 0.925186 0.215991
v -0.084275 1.349803 0.203459
v -0.084275 0.925186 0.203459
v -0.122349 1.349803 0.183108
v -0.122349 0.925186 0.183108
v -0.155721 1.349803 0.155721
v -0.155721 0.925186 0.155721
v -0.183108 1.349803 0.122349
v -0.183108 0.925186 0.122349
v -0.203459 1.349803 0.084275
v -0.203459 0.925186 0.084275
v -0.215991 1.349803 0.042963
v -0.215991 0.925186 0.042963
v -0.220223 1.349803 -0.000000
v -0.220223 0.925186 -0.000000
v -0.215991 1.349803 -0.042963
v -0.215991 0.925186 -0.042963
v -0.203459 1.349803 -0.084276
v -0.203459 0.925186 -0.084276
v -0.183108 1.349803 -0.122349
v -0.183108 0.925186 -0.122349
v -0.155721 1.349803 -0.155721
v -0.155721 0.925186 -0.155721
v -0.122349 1.349803 -0.183108
v -0.122349 0.925186 -0.183108
v -0.084275 1.349803 -0.203459
v -0.084275 0.925186 -0.203459
v -0.042963 1.349803 -0.215991
v -0.042963 0.925186 -0.215991
vn -0.0809 0.5646 0.8214
vn -0.0809 -0.5646 0.8214
vn -0.2396 -0.5646 0.7898
vn -0.3891 -0.5646 0.7279
vn -0.5236 -0.5646 0.6380
vn -0.6380 -0.5646 0.5236
vn -0.7279 -0.5646 0.3891
vn -0.7898 -0.5646 0.2396
vn -0.8214 -0.5646 0.0809
vn -0.8214 -0.5646 -0.0809
vn -0.7898 -0.5646 -0.2396
vn -0.7279 -0.5646 -0.3891
vn -0.6380 -0.5646 -0.5236
vn -0.5236 -0.5646 -0.6380
vn -0.3891 -0.5646 -0.7279
vn -0.2396 -0.5646 -0.7898
vn -0.0809 -0.5646 -0.8214
vn 0.0809 -0.5646 -0.8214
vn 0.2396 -0.5646 -0.7898
vn 0.3891 -0.5646 -0.7279
vn 0.5236 -0.5646 -0.6380
vn 0.6380 -0.5646 -0.5236
vn 0.7279 -0.5646 -0.3891
vn 0.7898 -0.5646 -0.2396
vn 0.8214 -0.5646 -0.0809
vn 0.8214 -0.5646 0.0809
vn 0.7898 -0.5646 0.2396
vn 0.7279 -0.5646 0.3891
vn 0.6380 -0.5646 0.5236
vn 0.5236 -0.5646 0.6380
vn -0.0000 -1.0000 -0.0000
vn 0.3891 -0.5646 0.7279
vn 0.2396 -0.5646 0.7898
vn -0.0000 1.0000 -0.0000
vn 0.0809 -0.5646 0.8214
vn 0.0809 0.5646 0.8214
vn 0.2396 0.5646 0.7898
vn 0.3891 0.5646 0.7279
vn 0.5236 0.5646 0.6380
vn 0.6380 0.5646 0.5236
vn 0.7279 0.5646 0.3891
vn 0.7898 0.5646 0.2396
vn 0.8214 0.5646 0.0809
vn 0.8214 0.5646 -0.0809
vn 0.7898 0.5646 -0.2396
vn 0.7279 0.5646 -0.3891
vn 0.6380 0.5646 -0.5236
vn 0.5236 0.5646 -0.6380
vn 0.3891 0.5646 -0.7279
vn 0.2396 0.5646 -0.7898
vn 0.0809 0.5646 -0.8214
vn -0.0809 0.5646 -0.8214
vn -0.2396 0.5646 -0.7898
vn -0.3891 0.5646 -0.7279
vn -0.5236 0.5646 -0.6380
vn -0.6380 0.5646 -0.5236
vn -0.7279 0.5646 -0.3891
vn -0.7898 0.5646 -0.2396
vn -0.8214 0.5646 -0.0809
vn -0.8214 0.5646 0.0809
vn -0.7898 0.5646 0.2396
vn -0.7279 0.5646 0.3891
vn -0.6380 0.5646 0.5236
vn -0.5236 0.5646 0.6380
vn -0.3891 0.5646 0.7279
vn -0.2396 0.5646 0.7898
vn -0.0980 -0.0000 0.9952
vn -0.2903 -0.0000 0.9569
vn -0.4714 -0.0000 0.8819
vn -0.6344 -0.0000 0.7730
vn -0.7730 -0.0000 0.6344
vn -0.8819 -0.0000 0.4714
vn -0.9569 -0.0000 0.2903
vn -0.9952 -0.0000 0.0980
vn -0.9952 -0.0000 -0.0980
vn -0.9569 -0.0000 -0.2903
vn -0.8819 -0.0000 -0.4714
vn -0.7730 -0.0000 -0.6344
vn -0.6344 -0.0000 -0.7730
vn -0.4714 -0.0000 -0.8819
vn -0.2903 -0.0000 -0.9569
vn -0.0980 -0.0000 -0.9952
vn 0.0980 -0.0000 -0.9952
vn 0.2903 -0.0000 -0.9569
vn 0.4714 -0.0000 -0.8819
vn 0.6344 -0.0000 -0.7730
vn 0.7730 -0.0000 -0.6344
vn 0.8819 -0.0000 -0.4714
vn 0.9569 -0.0000 -0.2903
vn 0.9952 -0.0000 -0.0980
vn 0.9952 -0.0000 0.0980
vn 0.9569 -0.0000 0.2903
vn 0.8819 -0.0000 0.4714
vn 0.7730 -0.0000 0.6344
vn 0.6344 -0.0000 0.7730
vn 0.4714 -0.0000 0.8819
vn 0.2903 -0.0000 0.9569
vn 0.0980 -0.0000 0.9952
vt 0.638920 0.881535
vt 0.897508 0.004370
vt 0.896978 0.444437
vt 0.897508 0.241125
vt 0.638001 0.876915
vt 0.892888 0.004370
vt 0.892888 0.241125
vt 0.901598 0.445356
vt 0.638001 0.872204
vt 0.888535 0.004370
vt 0.888535 0.241125
vt 0.906309 0.445356
vt 0.638920 0.867584
vt 0.884619 0.004370
vt 0.768325 0.476446
vt 0.884619 0.241125
vt 0.768325 0.713201
vt 0.910929 0.444437
vt 0.640723 0.863232
vt 0.764994 0.476446
vt 0.764994 0.713201
vt 0.915281 0.442635
vt 0.643340 0.859315
vt 0.761077 0.476446
vt 0.761077 0.713201
vt 0.919198 0.440017
vt 0.646671 0.855984
vt 0.756725 0.476446
vt 0.756725 0.713201
vt 0.922529 0.436686
vt 0.650588 0.853367
vt 0.752105 0.476446
vt 0.752105 0.713201
vt 0.925146 0.432770
vt 0.654940 0.851564
vt 0.747394 0.476446
vt 0.747394 0.713201
vt 0.926949 0.428417
vt 0.659560 0.850645
vt 0.742774 0.476446
vt 0.742774 0.713201
vt 0.927868 0.423797
vt 0.664271 0.850645
vt 0.738421 0.476446
vt 0.738421 0.713201
vt 0.927868 0.419086
vt 0.668891 0.851564
vt 0.734505 0.476446
vt 0.734505 0.713201
vt 0.926949 0.414466
vt 0.673243 0.853367
vt 0.731174 0.476446
vt 0.984536 0.476446
vt 0.731174 0.713201
vt 0.984536 0.713201
vt 0.925146 0.410114
vt 0.677160 0.855984
vt 0.980619 0.476446
vt 0.980619 0.713201
vt 0.922529 0.406197
vt 0.680491 0.859315
vt 0.976267 0.476446
vt 0.976267 0.713201
vt 0.919198 0.402866
vt 0.683108 0.863232
vt 0.971647 0.476446
vt 0.971647 0.713201
vt 0.915281 0.400249
vt 0.684911 0.867584
vt 0.966936 0.476446
vt 0.966936 0.713201
vt 0.910929 0.398446
vt 0.685830 0.872204
vt 0.962316 0.476446
vt 0.962316 0.713201
vt 0.906309 0.397527
vt 0.685830 0.876915
vt 0.957964 0.476446
vt 0.957964 0.713201
vt 0.901598 0.397527
vt 0.684911 0.881535
vt 0.954047 0.476446
vt 0.922152 0.721941
vt 0.954047 0.713201
vt 0.922152 0.958696
vt 0.896978 0.398446
vt 0.683108 0.885888
vt 0.918821 0.721941
vt 0.918821 0.958696
vt 0.892626 0.400249
vt 0.680491 0.889804
vt 0.914904 0.721941
vt 0.914904 0.958696
vt 0.888709 0.402866
vt 0.677160 0.893135
vt 0.910552 0.721941
vt 0.910552 0.958696
vt 0.885378 0.406197
vt 0.673243 0.895753
vt 0.905932 0.721941
vt 0.905932 0.958696
vt 0.882761 0.410114
vt 0.668891 0.897555
vt 0.901221 0.721941
vt 0.901221 0.958696
vt 0.880958 0.414466
vt 0.664271 0.898474
vt 0.896601 0.721941
vt 0.896601 0.958696
vt 0.880039 0.419086
vt 0.659560 0.898474
vt 0.892249 0.721941
vt 0.892249 0.958696
vt 0.880039 0.423797
vt 0.654940 0.897555
vt 0.888332 0.721941
vt 0.918439 0.004370
vt 0.888332 0.958696
vt 0.918439 0.241125
vt 0.880958 0.428417
vt 0.650588 0.895753
vt 0.915108 0.004370
vt 0.915108 0.241125
vt 0.882761 0.432769
vt 0.646671 0.893135
vt 0.911191 0.004370
vt 0.885378 0.436686
vt 0.911191 0.241125
vt 0.643340 0.889804
vt 0.906839 0.004370
vt 0.888709 0.440017
vt 0.906839 0.241125
vt 0.640723 0.885888
vt 0.902219 0.004370
vt 0.892626 0.442635
vt 0.902219 0.241125
vt 0.897508 0.159867
vt 0.892888 0.159867
vt 0.888535 0.159867
vt 0.884619 0.159867
vt 0.768325 0.631944
vt 0.764994 0.631944
vt 0.761077 0.631944
vt 0.756725 0.631944
vt 0.752105 0.631944
vt 0.747394 0.631944
vt 0.742774 0.631944
vt 0.738421 0.631944
vt 0.734505 0.631944
vt 0.731174 0.631944
vt 0.984536 0.631944
vt 0.980619 0.631944
vt 0.976267 0.631944
vt 0.971647 0.631944
vt 0.966936 0.631944
vt 0.962316 0.631944
vt 0.957964 0.631944
vt 0.954047 0.631944
vt 0.922152 0.877438
vt 0.918821 0.877438
vt 0.914904 0.877438
vt 0.910552 0.877438
vt 0.905932 0.877438
vt 0.901221 0.877438
vt 0.896601 0.877438
vt 0.892249 0.877438
vt 0.888332 0.877438
vt 0.918439 0.159867
vt 0.915108 0.159867
vt 0.911191 0.159867
vt 0.906839 0.159867
vt 0.902219 0.159867
vt 0.896800 0.170370
vt 0.896800 0.230622
vt 0.890792 0.230622
vt 0.890792 0.170370
vt 0.885132 0.230622
vt 0.885132 0.170370
vt 0.880039 0.230622
vt 0.773905 0.702699
vt 0.880039 0.170370
vt 0.773905 0.642446
vt 0.769573 0.702699
vt 0.769573 0.642446
vt 0.764480 0.702699
vt 0.764480 0.642446
vt 0.758820 0.702699
vt 0.758820 0.642446
vt 0.752812 0.702699
vt 0.752812 0.642446
vt 0.746686 0.702699
vt 0.746686 0.642446
vt 0.740678 0.702699
vt 0.740678 0.642446
vt 0.735018 0.702699
vt 0.735018 0.642446
vt 0.729925 0.702699
vt 0.729925 0.642446
vt 0.725593 0.702699
vt 0.989116 0.702699
vt 0.725593 0.642446
vt 0.989116 0.642446
vt 0.984022 0.702699
vt 0.984022 0.642446
vt 0.978363 0.702699
vt 0.978363 0.642446
vt 0.972354 0.702699
vt 0.972354 0.642446
vt 0.966228 0.702699
vt 0.966228 0.642446
vt 0.960220 0.702699
vt 0.960220 0.642446
vt 0.954561 0.702699
vt 0.954561 0.642446
vt 0.949467 0.702699
vt 0.927733 0.948193
vt 0.949467 0.642446
vt 0.927733 0.887941
vt 0.923401 0.948193
vt 0.923401 0.887941
vt 0.918307 0.948193
vt 0.918307 0.887941
vt 0.912648 0.948193
vt 0.912648 0.887941
vt 0.906640 0.948193
vt 0.906640 0.887941
vt 0.900514 0.948193
vt 0.900514 0.887941
vt 0.894506 0.948193
vt 0.894506 0.887941
vt 0.888846 0.948193
vt 0.888846 0.887941
vt 0.883752 0.948193
vt 0.924019 0.230622
vt 0.883752 0.887941
vt 0.924019 0.170370
vt 0.919688 0.230622
vt 0.919688 0.170370
vt 0.914594 0.230622
vt 0.914594 0.170370
vt 0.908934 0.230622
vt 0.908934 0.170370
vt 0.902926 0.230622
vt 0.902926 0.170370
s 0
f 65/137/1 66/138/1 100/176/1 97/173/1
f 98/174/2 99/175/2 4/7/2 2/4/2
f 99/175/3 101/177/3 6/11/3 4/7/3
f 101/177/4 103/179/4 8/16/4 6/11/4
f 103/180/5 105/183/5 10/21/5 8/17/5
f 105/183/6 107/185/6 12/25/6 10/21/6
f 107/185/7 109/187/7 14/29/7 12/25/7
f 109/187/8 111/189/8 16/33/8 14/29/8
f 111/189/9 113/191/9 18/37/9 16/33/9
f 113/191/10 115/193/10 20/41/10 18/37/10
f 115/193/11 117/195/11 22/45/11 20/41/11
f 117/195/12 119/197/12 24/49/12 22/45/12
f 119/197/13 121/199/13 26/54/13 24/49/13
f 121/200/14 123/203/14 28/59/14 26/55/14
f 123/203/15 125/205/15 30/63/15 28/59/15
f 125/205/16 127/207/16 32/67/16 30/63/16
f 127/207/17 129/209/17 34/71/17 32/67/17
f 129/209/18 131/211/18 36/75/18 34/71/18
f 131/211/19 133/213/19 38/79/19 36/75/19
f 133/213/20 135/215/20 40/84/20 38/79/20
f 135/216/21 137/219/21 42/89/21 40/85/21
f 137/219/22 139/221/22 44/93/22 42/89/22
f 139/221/23 141/223/23 46/97/23 44/93/23
f 141/223/24 143/225/24 48/101/24 46/97/24
f 143/225/25 145/227/25 50/105/25 48/101/25
f 145/227/26 147/229/26 52/109/26 50/105/26
f 147/229/27 149/231/27 54/113/27 52/109/27
f 149/231/28 151/233/28 56/118/28 54/113/28
f 151/234/29 153/237/29 58/123/29 56/119/29
f 153/237/30 155/239/30 60/128/30 58/123/30
f 4/8/31 6/12/31 8/18/31 10/22/31 12/26/31 14/30/31 16/34/31 18/38/31 20/42/31 22/46/31 24/50/31 26/56/31 28/60/31 30/64/31 32/68/31 34/72/31 36/76/31 38/80/31 40/86/31 42/90/31 44/94/31 46/98/31 48/102/31 50/106/31 52/110/31 54/114/31 56/120/31 58/124/31 60/127/31 62/131/31 64/135/31 2/3/31
f 155/239/32 157/241/32 62/132/32 60/128/32
f 157/241/33 159/243/33 64/136/33 62/132/33
f 1/1/34 63/133/34 61/129/34 59/125/34 57/121/34 55/115/34 53/111/34 51/107/34 49/103/34 47/99/34 45/95/34 43/91/34 41/87/34 39/81/34 37/77/34 35/73/34 33/69/34 31/65/34 29/61/34 27/57/34 25/51/34 23/47/34 21/43/34 19/39/34 17/35/34 15/31/34 13/27/34 11/23/34 9/19/34 7/13/34 5/9/34 3/5/34
f 159/243/35 98/174/35 2/4/35 64/136/35
f 96/172/36 65/137/36 97/173/36 160/244/36
f 95/171/37 96/172/37 160/244/37 158/242/37
f 94/170/38 95/171/38 158/242/38 156/240/38
f 93/169/39 94/170/39 156/240/39 154/238/39
f 92/168/40 93/169/40 154/238/40 152/236/40
f 91/166/41 92/167/41 152/235/41 150/232/41
f 90/165/42 91/166/42 150/232/42 148/230/42
f 89/164/43 90/165/43 148/230/43 146/228/43
f 88/163/44 89/164/44 146/228/44 144/226/44
f 87/162/45 88/163/45 144/226/45 142/224/45
f 86/161/46 87/162/46 142/224/46 140/222/46
f 85/160/47 86/161/47 140/222/47 138/220/47
f 84/159/48 85/160/48 138/220/48 136/218/48
f 83/157/49 84/158/49 136/217/49 134/214/49
f 82/156/50 83/157/50 134/214/50 132/212/50
f 81/155/51 82/156/51 132/212/51 130/210/51
f 80/154/52 81/155/52 130/210/52 128/208/52
f 79/153/53 80/154/53 128/208/53 126/206/53
f 78/152/54 79/153/54 126/206/54 124/204/54
f 77/151/55 78/152/55 124/204/55 122/202/55
f 76/149/56 77/150/56 122/201/56 120/198/56
f 75/148/57 76/149/57 120/198/57 118/196/57
f 74/147/58 75/148/58 118/196/58 116/194/58
f 73/146/59 74/147/59 116/194/59 114/192/59
f 72/145/60 73/146/60 114/192/60 112/190/60
f 71/144/61 72/145/61 112/190/61 110/188/61
f 70/143/62 71/144/62 110/188/62 108/186/62
f 69/142/63 70/143/63 108/186/63 106/184/63
f 68/141/64 69/142/64 106/184/64 104/182/64
f 67/139/65 68/140/65 104/181/65 102/178/65
f 66/138/66 67/139/66 102/178/66 100/176/66
f 97/173/67 100/176/67 99/175/67 98/174/67
f 100/176/68 102/178/68 101/177/68 99/175/68
f 102/178/69 104/181/69 103/179/69 101/177/69
f 104/182/70 106/184/70 105/183/70 103/180/70
f 106/184/71 108/186/71 107/185/71 105/183/71
f 108/186/72 110/188/72 109/187/72 107/185/72
f 110/188/73 112/190/73 111/189/73 109/187/73
f 112/190/74 114/192/74 113/191/74 111/189/74
f 114/192/75 116/194/75 115/193/75 113/191/75
f 116/194/76 118/196/76 117/195/76 115/193/76
f 118/196/77 120/198/77 119/197/77 117/195/77
f 120/198/78 122/201/78 121/199/78 119/197/78
f 122/202/79 124/204/79 123/203/79 121/200/79
f 124/204/80 126/206/80 125/205/80 123/203/80
f 126/206/81 128/208/81 127/207/81 125/205/81
f 128/208/82 130/210/82 129/209/82 127/207/82
f 130/210/83 132/212/83 131/211/83 129/209/83
f 132/212/84 134/214/84 133/213/84 131/211/84
f 134/214/85 136/217/85 135/215/85 133/213/85
f 136/218/86 138/220/86 137/219/86 135/216/86
f 138/220/87 140/222/87 139/221/87 137/219/87
f 140/222/88 142/224/88 141/223/88 139/221/88
f 142/224/89 144/226/89 143/225/89 141/223/89
f 144/226/90 146/228/90 145/227/90 143/225/90
f 146/228/91 148/230/91 147/229/91 145/227/91
f 148/230/92 150/232/92 149/231/92 147/229/92
f 150/232/93 152/235/93 151/233/93 149/231/93
f 152/236/94 154/238/94 153/237/94 151/234/94
f 154/238/95 156/240/95 155/239/95 153/237/95
f 156/240/96 158/242/96 157/241/96 155/239/96
f 158/242/97 160/244/97 159/243/97 157/241/97
f 160/244/98 97/173/98 98/174/98 159/243/98
f 1/2/67 3/6/67 66/138/67 65/137/67
f 3/6/68 5/10/68 67/139/68 66/138/68
f 5/10/69 7/14/69 68/140/69 67/139/69
f 7/15/70 9/20/70 69/142/70 68/141/70
f 9/20/71 11/24/71 70/143/71 69/142/71
f 11/24/72 13/28/72 71/144/72 70/143/72
f 13/28/73 15/32/73 72/145/73 71/144/73
f 15/32/74 17/36/74 73/146/74 72/145/74
f 17/36/75 19/40/75 74/147/75 73/146/75
f 19/40/76 21/44/76 75/148/76 74/147/76
f 21/44/77 23/48/77 76/149/77 75/148/77
f 23/48/78 25/52/78 77/150/78 76/149/78
f 25/53/79 27/58/79 78/152/79 77/151/79
f 27/58/80 29/62/80 79/153/80 78/152/80
f 29/62/81 31/66/81 80/154/81 79/153/81
f 31/66/82 33/70/82 81/155/82 80/154/82
f 33/70/83 35/74/83 82/156/83 81/155/83
f 35/74/84 37/78/84 83/157/84 82/156/84
f 37/78/85 39/82/85 84/158/85 83/157/85
f 39/83/86 41/88/86 85/160/86 84/159/86
f 41/88/87 43/92/87 86/161/87 85/160/87
f 43/92/88 45/96/88 87/162/88 86/161/88
f 45/96/89 47/100/89 88/163/89 87/162/89
f 47/100/90 49/104/90 89/164/90 88/163/90
f 49/104/91 51/108/91 90/165/91 89/164/91
f 51/108/92 53/112/92 91/166/92 90/165/92
f 53/112/93 55/116/93 92/167/93 91/166/93
f 55/117/94 57/122/94 93/169/94 92/168/94
f 57/122/95 59/126/95 94/170/95 93/169/95
f 59/126/96 61/130/96 95/171/96 94/170/96
f 61/130/97 63/134/97 96/172/97 95/171/97
f 63/134/98 1/2/98 65/137/98 96/172/98
